<svg xmlns="http://www.w3.org/2000/svg" viewBox="0 0 400 400" role="img" aria-labelledby="title desc">
  <title id="title">Evidence from the drowned city</title>
  <desc id="desc">Photographs, a specimen jar, a compass, and a marked chart crowd an expedition table.</desc>
  <defs>
    <linearGradient id="room" x2="0" y2="1">
      <stop stop-color="#06131a"/>
      <stop offset="1" stop-color="#17373b"/>
    </linearGradient>
    <linearGradient id="glass" x2="1" y2="1">
      <stop stop-color="#9bc6ba" stop-opacity=".65"/>
      <stop offset="1" stop-color="#49756e" stop-opacity=".2"/>
    </linearGradient>
  </defs>
  <rect width="400" height="400" rx="30" fill="url(#room)"/>
  <path d="M20 120h360v260H20Z" fill="#4b3b32" stroke="#211d1b" stroke-width="7"/>
  <path d="M20 175h360M20 278h360M103 120v260M288 120v260" stroke="#665044" stroke-width="4"/>
  <path d="M55 146l121 16-14 104-121-16Z" fill="#d7c79e" stroke="#261f1a" stroke-width="5"/>
  <path d="M72 166l82 11-9 62-82-11Z" fill="#142a2e"/>
  <path d="M80 223l25-29 18 19 20-27 8 53Z" fill="#5d8880"/>
  <circle cx="117" cy="191" r="9" fill="#d8ad61"/>
  <path d="M49 258l111 15" stroke="#a65c48" stroke-width="5"/>
  <path d="M215 151h76l8 25v100h-92V176Z" fill="url(#glass)" stroke="#91b3aa" stroke-width="5"/>
  <path d="M218 151v-24h70v24M210 177h87" stroke="#bd9b61" stroke-width="7"/>
  <path d="M229 238q24-45 48 0-4 27-24 27t-24-27Z" fill="#183e3c" stroke="#a65c48" stroke-width="4"/>
  <path d="M246 226c17 2 22 20 11 27-12 8-28-5-22-18 5-10 19-10 23-1" fill="none" stroke="#76a59b" stroke-width="4"/>
  <circle cx="89" cy="320" r="36" fill="#162f33" stroke="#c2a46b" stroke-width="5"/>
  <path d="M89 289l8 25 23 6-23 7-8 24-8-24-23-7 23-6Z" fill="#d8ad61"/>
  <path d="M187 306l121-11 8 65-121 11Z" fill="#d8c9a2" stroke="#5c4938" stroke-width="5"/>
  <path d="M207 321q34 24 81-2M215 349q27-23 78-2M247 305l2 59" fill="none" stroke="#5d8880" stroke-width="4"/>
  <circle cx="284" cy="319" r="7" fill="#a65c48"/>
  <path d="M29 95q70-17 130 1t113-1q51-16 99 0" fill="none" stroke="#5da7a1" stroke-width="4" opacity=".45"/>
</svg>
