<svg xmlns="http://www.w3.org/2000/svg" viewBox="0 0 400 400" role="img" aria-labelledby="title desc">
  <title id="title">Prism wisp</title>
  <desc id="desc">A floating many-colored spirit made of orbiting prism shards steals light from a lantern.</desc>
  <defs><linearGradient id="bg" x2="1" y2="1"><stop stop-color="#0e1537"/><stop offset="1" stop-color="#33244c"/></linearGradient><radialGradient id="glow"><stop stop-color="#fffbd1"/><stop offset=".25" stop-color="#6fe7dd"/><stop offset=".65" stop-color="#796fd1" stop-opacity=".65"/><stop offset="1" stop-color="#796fd1" stop-opacity="0"/></radialGradient></defs>
  <rect width="400" height="400" rx="30" fill="url(#bg)"/>
  <circle cx="202" cy="200" r="168" fill="url(#glow)" opacity=".28"/>
  <circle cx="313" cy="70" r="38" fill="#f5d17b"/><circle cx="328" cy="57" r="36" fill="#151a3d"/>
  <path d="M0 337q86-41 170-12t230-8v83H0Z" fill="#0c1127"/>
  <path d="M202 99 247 181 213 269 153 200Z" fill="#6fe7dd" stroke="#effffb" stroke-width="6"/><path d="M202 99l11 170M153 200l94-19M202 99l-49 101 60 69 34-88Z" fill="none" stroke="#7168bd" stroke-width="4"/>
  <circle cx="200" cy="189" r="118" fill="url(#glow)" opacity=".55"/>
  <path d="M106 113 132 150 101 177 79 140ZM288 142l30 39-36 27-19-43ZM119 263l34 24-23 42-38-31ZM269 266l40 21-17 45-41-36Z" fill="#8076d4" stroke="#c9c6ff" stroke-width="4"/>
  <path d="M80 140q94-75 188-3t25 151-180 5T80 140Z" fill="none" stroke="#f5c66d" stroke-width="4" stroke-dasharray="6 12" opacity=".8"/>
  <circle cx="186" cy="185" r="7" fill="#17213f"/><circle cx="219" cy="185" r="7" fill="#17213f"/><path d="M185 217q17 12 35-1" fill="none" stroke="#17213f" stroke-width="5" stroke-linecap="round"/>
  <path d="M181 269q-22 42 11 76t-8 39M218 267q30 39 7 73t18 39" fill="none" stroke="#75e9df" stroke-width="9" stroke-linecap="round" opacity=".75"/>
</svg>
