<svg xmlns="http://www.w3.org/2000/svg" viewBox="0 0 400 400" role="img" aria-labelledby="title desc">
  <title id="title">Ashen wyrm</title>
  <desc id="desc">A vast charcoal wyrm coils around the final prism gate, its furnace core and crescent horns blazing.</desc>
  <defs><linearGradient id="bg" x2="1" y2="1"><stop stop-color="#0b1029"/><stop offset="1" stop-color="#331b35"/></linearGradient><linearGradient id="scale" x2="0" y2="1"><stop stop-color="#5c4b65"/><stop offset="1" stop-color="#1d192c"/></linearGradient><radialGradient id="fire"><stop stop-color="#fff2aa"/><stop offset=".35" stop-color="#ff9a70"/><stop offset="1" stop-color="#ff6f6a" stop-opacity="0"/></radialGradient></defs>
  <rect width="400" height="400" rx="30" fill="url(#bg)"/>
  <circle cx="77" cy="67" r="37" fill="#f2cc73"/><circle cx="92" cy="54" r="35" fill="#11142d"/>
  <path d="M70 351V153h260v198M92 153l108-92 108 92" fill="none" stroke="#514569" stroke-width="15" stroke-linejoin="round"/>
  <path d="M200 82v270M108 177h184" stroke="#705a7d" stroke-width="7" opacity=".8"/>
  <path d="M44 341q-9-91 83-91t153 37q46 28 71-19 17 75-60 101-81 26-157-13-59-31-90-15Z" fill="url(#scale)" stroke="#a78fba" stroke-width="7"/>
  <path d="M244 232q-6-98 71-117l43 37-7 96-78 41Z" fill="url(#scale)" stroke="#b79fc5" stroke-width="7"/>
  <path d="M284 128 257 64l55 43 28-63 8 71 49-35-33 75" fill="#6a536f" stroke="#f5c66d" stroke-width="6" stroke-linejoin="round"/>
  <path d="M276 174q41-27 75 4" fill="none" stroke="#181326" stroke-width="13"/><circle cx="300" cy="171" r="6" fill="#fff0a2"/><circle cx="337" cy="174" r="6" fill="#fff0a2"/>
  <path d="M272 212q45 42 82 1l-11 50-52 18Z" fill="#171326"/><path d="M288 221l12 35 15-31 14 28 12-35" fill="#fff2c4"/>
  <circle cx="198" cy="315" r="83" fill="url(#fire)" opacity=".55"/><path d="M173 342q-22-48 19-93 8 31 28 46 18-28 24-54 38 57-2 101Z" fill="#ff876b"/><path d="M195 341q-8-27 15-52 6 21 16 31 10-16 13-31 18 29-3 52Z" fill="#ffe394"/>
  <path d="M24 376h352" stroke="#6fe7dd" stroke-width="3" stroke-dasharray="3 15"/>
</svg>
