<svg xmlns="http://www.w3.org/2000/svg" viewBox="0 0 400 400" role="img" aria-labelledby="title desc">
  <title id="title">Dust jackal</title>
  <desc id="desc">A lean midnight jackal with crystal hackles stalks across the moon road.</desc>
  <defs><linearGradient id="bg" x2="1" y2="1"><stop stop-color="#12193b"/><stop offset="1" stop-color="#322144"/></linearGradient><linearGradient id="fur" x2="0" y2="1"><stop stop-color="#514a72"/><stop offset="1" stop-color="#22213b"/></linearGradient></defs>
  <rect width="400" height="400" rx="30" fill="url(#bg)"/>
  <circle cx="304" cy="72" r="41" fill="#f5d17b"/><circle cx="321" cy="58" r="39" fill="#171a3d"/>
  <path d="M0 326q90-52 176-17t224-11v102H0Z" fill="#10142b"/>
  <path d="M87 260q38-75 125-63l61 32 57-28-29 44 46 27-66 25-43 27H122Z" fill="url(#fur)" stroke="#aaa6ef" stroke-width="5" stroke-linejoin="round"/>
  <path d="M251 219l17-58 25 51 39-34-10 56" fill="#5e598b" stroke="#bcb7ff" stroke-width="4"/>
  <path d="M119 218 99 157l46 42 11-61 34 61 23-65 20 70" fill="#60598b" stroke="#8ce8dc" stroke-width="4" stroke-linejoin="round"/>
  <path d="M119 286 91 355M175 304l-3 55M243 297l30 57M294 280l43 56" stroke="#24213a" stroke-width="16" stroke-linecap="round"/>
  <path d="M73 357h37M154 360h37M259 355h35M324 337h34" stroke="#0b1025" stroke-width="13" stroke-linecap="round"/>
  <path d="M85 259Q28 210 53 175q3 50 62 50" fill="none" stroke="#514a72" stroke-width="17" stroke-linecap="round"/>
  <circle cx="302" cy="241" r="7" fill="#ffe98d"/><path d="M330 271l22 2" stroke="#ff8d78" stroke-width="5" stroke-linecap="round"/>
  <path d="M21 369h359" stroke="#6fe7dd" stroke-width="3" stroke-dasharray="3 15" opacity=".55"/>
</svg>
