<svg xmlns="http://www.w3.org/2000/svg" viewBox="0 0 400 400" role="img" aria-labelledby="title desc">
  <title id="title">Bell vulture</title>
  <desc id="desc">A bronze vulture with bell-shaped feathers dives through moonlight, wings ringing.</desc>
  <defs><linearGradient id="bg" x2="0" y2="1"><stop stop-color="#12193d"/><stop offset="1" stop-color="#322044"/></linearGradient><linearGradient id="wing" x2="1" y2="1"><stop stop-color="#ad755d"/><stop offset="1" stop-color="#3b2b45"/></linearGradient></defs>
  <rect width="400" height="400" rx="30" fill="url(#bg)"/>
  <circle cx="304" cy="72" r="41" fill="#f5d17b"/><circle cx="321" cy="58" r="39" fill="#171a3d"/>
  <path d="M0 345q83-36 170-12t230-7v74H0Z" fill="#0d1229"/>
  <path d="M197 174Q98 76 29 147q85 4 129 94ZM203 174q101-94 169-20-82 0-132 90Z" fill="url(#wing)" stroke="#d0a4a1" stroke-width="6" stroke-linejoin="round"/>
  <path d="M160 176 92 137l46 70-85-36 79 77M238 178l67-33-47 65 87-31-82 73" fill="none" stroke="#f5c66d" stroke-width="6" stroke-linecap="round"/>
  <path d="M167 173q34-39 69 1l23 102-60 52-61-51Z" fill="#55415a" stroke="#bba6d2" stroke-width="6"/>
  <circle cx="201" cy="153" r="31" fill="#c28265"/><path d="M225 154l39 13-37 19Z" fill="#f5c66d" stroke="#fff0ae" stroke-width="4"/><circle cx="211" cy="146" r="6" fill="#fff3a7"/><circle cx="211" cy="146" r="3" fill="#24203a"/>
  <path d="M172 268q29 39 58 0l12 47-42 35-43-36Z" fill="#31283f"/>
  <path d="M169 216l-24 40 34 6ZM231 216l26 40-35 6Z" fill="#d09168" stroke="#f5c66d" stroke-width="4"/>
  <path d="M172 323l-9 48M228 323l12 48" stroke="#c28a60" stroke-width="9"/><path d="M147 371h29M227 371h29" stroke="#f5c66d" stroke-width="6"/>
  <path d="M54 93l13 13M84 77l11 18M339 110l-16 13" stroke="#6fe7dd" stroke-width="4" stroke-linecap="round"/>
</svg>
