<svg xmlns="http://www.w3.org/2000/svg" viewBox="0 0 512 512" role="img" aria-labelledby="title desc">
  <title id="title">Iron Wyvern</title>
  <desc id="desc">A plated iron wyvern spreads blade-like wings above a glowing mountain gate.</desc>
  <defs>
    <linearGradient id="wyvern-sky" x1="0" y1="0" x2="0" y2="1">
      <stop offset="0" stop-color="#11182b"/>
      <stop offset="1" stop-color="#3f1f2c"/>
    </linearGradient>
    <linearGradient id="wyvern-iron" x1="0" y1="0" x2="1" y2="1">
      <stop offset="0" stop-color="#eef1ea"/>
      <stop offset=".35" stop-color="#8e9a9d"/>
      <stop offset="1" stop-color="#3d4652"/>
    </linearGradient>
    <radialGradient id="wyvern-fire" cx="50%" cy="50%" r="50%">
      <stop offset="0" stop-color="#fff5ae"/>
      <stop offset=".4" stop-color="#ff9a42"/>
      <stop offset="1" stop-color="#b51f35" stop-opacity="0"/>
    </radialGradient>
  </defs>
  <rect width="512" height="512" rx="36" fill="url(#wyvern-sky)"/>
  <circle cx="256" cy="357" r="124" fill="url(#wyvern-fire)" opacity=".65"/>
  <path d="M0 396 102 264l51 68 98-155 80 135 59-75 122 162v113H0Z" fill="#0d1423"/>
  <path d="M29 176 195 229l61 91-124-51-79 17 50-39Z" fill="url(#wyvern-iron)" stroke="#202938" stroke-width="9" stroke-linejoin="round"/>
  <path d="m483 176-166 53-61 91 124-51 79 17-50-39Z" fill="url(#wyvern-iron)" stroke="#202938" stroke-width="9" stroke-linejoin="round"/>
  <path d="m58 198 103 43-79 3Z" fill="#d6ddda" opacity=".75"/>
  <path d="m454 198-103 43 79 3Z" fill="#d6ddda" opacity=".75"/>
  <path d="M174 230c15-41 44-66 82-70 38 4 67 29 82 70l-28 140-54 39-54-39Z" fill="url(#wyvern-iron)" stroke="#202938" stroke-width="10" stroke-linejoin="round"/>
  <path d="m256 131-30 50 30 30 30-30Z" fill="#4c5864" stroke="#bcc5c3" stroke-width="7"/>
  <path d="m201 221 55-25 55 25-12 74-43 36-43-36Z" fill="#69767c"/>
  <path d="m214 234 42-20 42 20-11 34-31 15-31-15Z" fill="#1f2935"/>
  <path d="m228 237 18-5-8 18Z" fill="#ffc152"/>
  <path d="m284 237-18-5 8 18Z" fill="#ffc152"/>
  <path d="M243 270h26l13 17-26 18-26-18Z" fill="#d6dde0"/>
  <path d="m217 323 39 30 39-30-7 61-32 24-32-24Z" fill="#4c5864"/>
  <path d="M168 370 93 440l116-24 47 46 47-46 116 24-75-70-88 39Z" fill="#68747b" stroke="#202938" stroke-width="9" stroke-linejoin="round"/>
  <path d="M212 421h88" stroke="#ffad47" stroke-width="10" stroke-linecap="round"/>
  <path d="M149 450h214" stroke="#d14a42" stroke-width="8" stroke-linecap="round" opacity=".7"/>
</svg>
