<svg xmlns="http://www.w3.org/2000/svg" viewBox="0 0 512 512" role="img" aria-labelledby="title desc">
  <title id="title">Malrec, Crown-Bound</title>
  <desc id="desc">A fallen champion in dark armor is encircled by a living crown of flame.</desc>
  <defs>
    <linearGradient id="malrec-sky" x1="0" y1="0" x2="0" y2="1">
      <stop offset="0" stop-color="#171124"/>
      <stop offset="1" stop-color="#481827"/>
    </linearGradient>
    <linearGradient id="malrec-armor" x1="0" y1="0" x2="1" y2="1">
      <stop offset="0" stop-color="#8f7d82"/>
      <stop offset=".36" stop-color="#3d3544"/>
      <stop offset="1" stop-color="#171a27"/>
    </linearGradient>
    <radialGradient id="malrec-core" cx="50%" cy="50%" r="50%">
      <stop offset="0" stop-color="#fff7b2"/>
      <stop offset=".28" stop-color="#ffb23e"/>
      <stop offset=".7" stop-color="#ef4d33" stop-opacity=".8"/>
      <stop offset="1" stop-color="#8d1831" stop-opacity="0"/>
    </radialGradient>
  </defs>
  <rect width="512" height="512" rx="36" fill="url(#malrec-sky)"/>
  <path d="M0 401 94 314l54 30 108-188 105 188 56-30 95 87v111H0Z" fill="#0d101c"/>
  <circle cx="256" cy="260" r="190" fill="url(#malrec-core)" opacity=".34"/>
  <path d="M122 190c16-80 62-125 134-125s118 45 134 125l-39-28-24 43-33-57-38 45-38-45-33 57-24-43Z" fill="#ef5c36" stroke="#ffbe4e" stroke-width="8" stroke-linejoin="round"/>
  <path d="M179 178c14-42 39-62 77-62s63 20 77 62l-17 75H196Z" fill="#262330"/>
  <path d="m194 177 62-32 62 32-12 65-50 29-50-29Z" fill="url(#malrec-armor)" stroke="#151721" stroke-width="9"/>
  <path d="m218 198 27-9-13 25Z" fill="#ffb13e"/>
  <path d="m294 198-27-9 13 25Z" fill="#ffb13e"/>
  <path d="M238 231h36" stroke="#c25a46" stroke-width="6" stroke-linecap="round"/>
  <path d="M146 306c20-50 56-76 110-76s90 26 110 76l53 153H93Z" fill="url(#malrec-armor)" stroke="#151721" stroke-width="10" stroke-linejoin="round"/>
  <path d="m168 291 88 55 88-55-18 109-70 46-70-46Z" fill="#4a3542"/>
  <path d="m219 290 37 33 37-33-9 83-28 27-28-27Z" fill="#1b202c"/>
  <circle cx="256" cy="347" r="55" fill="url(#malrec-core)"/>
  <path d="m256 313 23 35-23 38-23-38Z" fill="#fff2a0"/>
  <path d="M143 318 70 438l78-13 46-105Z" fill="#302b3a" stroke="#151721" stroke-width="9"/>
  <path d="m369 318 73 120-78-13-46-105Z" fill="#302b3a" stroke="#151721" stroke-width="9"/>
  <path d="M117 445h278" stroke="#f0613a" stroke-width="9" stroke-linecap="round" opacity=".75"/>
  <path d="M83 252c38-17 64-53 78-106M429 252c-38-17-64-53-78-106" fill="none" stroke="#ffad42" stroke-width="8" stroke-linecap="round" opacity=".7"/>
</svg>
