<svg xmlns="http://www.w3.org/2000/svg" viewBox="0 0 400 400" role="img" aria-labelledby="title desc">
  <title id="title">Living prism seed</title><desc id="desc">A many-colored crystal seed sprouts luminous geometric leaves inside a halo.</desc>
  <defs><linearGradient id="bg" x2="1" y2="1"><stop stop-color="#0e1537"/><stop offset="1" stop-color="#332049"/></linearGradient><radialGradient id="halo"><stop stop-color="#fff7c1"/><stop offset=".35" stop-color="#6fe7dd" stop-opacity=".65"/><stop offset="1" stop-color="#6fe7dd" stop-opacity="0"/></radialGradient><linearGradient id="seed" x2="1" y2="1"><stop stop-color="#6fe7dd"/><stop offset=".5" stop-color="#8076d4"/><stop offset="1" stop-color="#ff8d78"/></linearGradient></defs>
  <rect width="400" height="400" rx="30" fill="url(#bg)"/><circle cx="200" cy="200" r="180" fill="url(#halo)" opacity=".45"/>
  <path d="M200 80 275 160 244 286 200 350 156 286 125 160Z" fill="url(#seed)" stroke="#effffb" stroke-width="7"/><path d="M200 80v270M125 160h150M156 286l88-126M244 286l-88-126" fill="none" stroke="#f3f1ff" stroke-width="4" opacity=".7"/>
  <path d="M195 165q-56-57-103-25 43 11 67 63M205 165q56-57 103-25-43 11-67 63" fill="#6fe7dd" opacity=".75" stroke="#effffb" stroke-width="5"/>
  <circle cx="200" cy="204" r="21" fill="#fff4ae"/><circle cx="207" cy="197" r="19" fill="#766dd0"/>
</svg>
