<svg xmlns="http://www.w3.org/2000/svg" viewBox="0 0 400 400" role="img" aria-labelledby="title desc">
  <title id="title">Glasswind mantle</title><desc id="desc">A translucent moonlit cape edged with tiny chiming crystal tassels.</desc>
  <defs><linearGradient id="bg" x2="1" y2="1"><stop stop-color="#10183a"/><stop offset="1" stop-color="#312149"/></linearGradient><linearGradient id="cloth" x2="1" y2="1"><stop stop-color="#8e88c5" stop-opacity=".9"/><stop offset="1" stop-color="#6fe7dd" stop-opacity=".5"/></linearGradient></defs>
  <rect width="400" height="400" rx="30" fill="url(#bg)"/><circle cx="200" cy="200" r="145" fill="none" stroke="#615a89" stroke-width="5" stroke-dasharray="4 15"/>
  <path d="M150 88q50-35 100 0l77 247q-63 36-127-8-64 44-127 8Z" fill="url(#cloth)" stroke="#d5d2ff" stroke-width="7"/><path d="M151 89q49 65 99 0M199 104v222" fill="none" stroke="#f5c66d" stroke-width="5"/>
  <path d="M84 334l-10 28M117 345l-5 30M157 348v32M242 348v32M282 344l7 30M315 333l12 29" stroke="#6fe7dd" stroke-width="6"/><circle cx="200" cy="96" r="17" fill="#ff8d78"/>
  <circle cx="310" cy="79" r="28" fill="#f5cf78"/><circle cx="321" cy="69" r="26" fill="#13183a"/>
</svg>
