<svg xmlns="http://www.w3.org/2000/svg" viewBox="0 0 400 400" role="img" aria-labelledby="title desc">
  <title id="title">Nira the ruin cartographer</title>
  <desc id="desc">A prism-masked cartographer unfolds a luminous map beneath moving ruin markers.</desc>
  <defs><linearGradient id="bg" x2="1" y2="1"><stop stop-color="#131838"/><stop offset="1" stop-color="#302553"/></linearGradient><linearGradient id="map" x2="1"><stop stop-color="#ffe79a"/><stop offset="1" stop-color="#75e9dc"/></linearGradient></defs>
  <rect width="400" height="400" rx="30" fill="url(#bg)"/>
  <circle cx="76" cy="68" r="34" fill="#f5cb72"/><circle cx="91" cy="55" r="32" fill="#171a3b"/>
  <path d="M42 318V203h38v115M320 318V170h43v148M335 170l7-30 8 30" fill="none" stroke="#57517f" stroke-width="9"/>
  <path d="M159 135q38-28 76 3l-3 48-78-2Z" fill="#282542" stroke="#aaa6ef" stroke-width="4"/>
  <circle cx="195" cy="157" r="29" fill="#c77f71"/>
  <path d="M167 153l27-28 31 28-31 22Z" fill="#756caf" stroke="#d5d2ff" stroke-width="4"/>
  <path d="M183 151l10-8 11 8-11 8Z" fill="#75e9dc"/>
  <path d="M146 192q47-25 98 1l33 131H117Z" fill="#343253" stroke="#aaa6ef" stroke-width="4"/>
  <path d="M169 194l25 30 24-30M135 223l-35 42M252 225l36 38" fill="none" stroke="#d29579" stroke-width="13" stroke-linecap="round"/>
  <path d="M83 259l53-13 62 27 70-24 44 23-12 70-59-20-63 23-64-22-48 12Z" fill="url(#map)" stroke="#fff4bd" stroke-width="4" stroke-linejoin="round"/>
  <path d="M136 246l-22 77M198 273l-20 72M268 249l-27 73" stroke="#59608b" stroke-width="3"/>
  <path d="M107 296q42-31 76 7t73-7 45 9" fill="none" stroke="#ad5f78" stroke-width="5" stroke-dasharray="6 7"/>
  <circle cx="183" cy="303" r="7" fill="#fff"/><path d="M183 288v30M168 303h30" stroke="#fff" stroke-width="3"/>
  <path d="M142 324l-10 53M242 324l12 53" stroke="#1c1b31" stroke-width="14" stroke-linecap="round"/>
</svg>
