<svg xmlns="http://www.w3.org/2000/svg" viewBox="0 0 512 512" role="img" aria-labelledby="title desc">
  <title id="title">Serin, shrine apprentice</title>
  <desc id="desc">A young shrine apprentice holds an ember lantern beneath a mountain sky.</desc>
  <defs>
    <linearGradient id="serin-sky" x1="0" y1="0" x2="0" y2="1">
      <stop offset="0" stop-color="#17233d"/>
      <stop offset="1" stop-color="#4b2646"/>
    </linearGradient>
    <radialGradient id="serin-glow" cx="50%" cy="50%" r="50%">
      <stop offset="0" stop-color="#fff4b8" stop-opacity=".96"/>
      <stop offset=".48" stop-color="#ffae55" stop-opacity=".55"/>
      <stop offset="1" stop-color="#ff6b42" stop-opacity="0"/>
    </radialGradient>
  </defs>
  <rect width="512" height="512" rx="36" fill="url(#serin-sky)"/>
  <path d="M0 352 88 268l58 46 91-128 74 96 64-67 137 145v152H0Z" fill="#10182b"/>
  <circle cx="344" cy="88" r="34" fill="#f8d88b" opacity=".82"/>
  <circle cx="209" cy="337" r="130" fill="url(#serin-glow)"/>
  <path d="M170 189c9-44 37-70 82-70 48 0 78 31 79 86l-16 22H185Z" fill="#2a1a35"/>
  <path d="M195 176c14-26 36-39 65-39 27 0 48 14 61 41l-9 52H197Z" fill="#d8aa82"/>
  <path d="M204 167c14-39 56-55 94-31 18 11 29 29 33 52-26-21-47-28-75-23-19 3-35 12-52 2Z" fill="#592d47"/>
  <path d="M231 207c9 7 20 7 29 0" fill="none" stroke="#59353b" stroke-width="5" stroke-linecap="round"/>
  <circle cx="221" cy="188" r="4" fill="#39283e"/>
  <circle cx="278" cy="188" r="4" fill="#39283e"/>
  <path d="M180 260c18-28 44-42 76-42 36 0 64 17 83 50l42 146H128Z" fill="#e8dfc7"/>
  <path d="M211 235 256 276l45-41 24 39-69 53-67-53Z" fill="#b8554e"/>
  <path d="M236 303h40v111h-40Z" fill="#66334b"/>
  <path d="M163 298c-26 35-34 76-26 122l49-4 15-104Z" fill="#d7cbb3"/>
  <path d="M344 298c27 36 35 76 26 122l-48-4-16-104Z" fill="#d7cbb3"/>
  <path d="M176 343c22 3 40 14 53 31l-20 28c-14-13-29-20-47-21Z" fill="#d8aa82"/>
  <path d="M336 343c-22 3-40 14-53 31l20 28c14-13 29-20 47-21Z" fill="#d8aa82"/>
  <path d="M201 343h110l-9 92h-92Z" fill="#4c2945" stroke="#d99054" stroke-width="7"/>
  <path d="m224 367 32-25 32 25-9 44h-46Z" fill="#ffad4e"/>
  <path d="m256 358 13 23-13 18-13-18Z" fill="#fff0b0"/>
  <circle cx="256" cy="381" r="62" fill="none" stroke="#f7b251" stroke-width="5" opacity=".3"/>
  <path d="M102 447h308" stroke="#d05f4a" stroke-width="8" stroke-linecap="round" opacity=".65"/>
</svg>
