<svg xmlns="http://www.w3.org/2000/svg" viewBox="0 0 400 400" role="img" aria-labelledby="title desc">
  <title id="title">Hush-masked child</title>
  <desc id="desc">A small cloaked child wearing a crescent paper mask carries a shadowless lantern.</desc>
  <defs><linearGradient id="bg" x2="1" y2="1"><stop stop-color="#0d1535"/><stop offset="1" stop-color="#30214b"/></linearGradient><radialGradient id="glow"><stop stop-color="#fff8c9"/><stop offset=".35" stop-color="#7be9df" stop-opacity=".8"/><stop offset="1" stop-color="#7be9df" stop-opacity="0"/></radialGradient></defs>
  <rect width="400" height="400" rx="30" fill="url(#bg)"/>
  <circle cx="202" cy="235" r="135" fill="url(#glow)" opacity=".33"/>
  <path d="M35 320Q100 278 165 314T300 302T420 316V400H0Z" fill="#0a0e25"/>
  <path d="M54 312v-67h32v62M312 311v-92h37v91" fill="none" stroke="#4d4b78" stroke-width="7"/>
  <path d="M157 149q42-47 86 0l-5 55-77-1Z" fill="#272640" stroke="#9b96dc" stroke-width="4"/>
  <circle cx="200" cy="168" r="36" fill="#f4e7c6"/>
  <path d="M168 170q34-55 65-3-19 8-34 37-14-22-31-34Z" fill="#fff5d9" stroke="#bcb7ff" stroke-width="4"/>
  <circle cx="189" cy="171" r="4" fill="#4b496e"/><circle cx="211" cy="171" r="4" fill="#4b496e"/>
  <path d="M154 204q45-24 91 1l31 119H125Z" fill="#373153" stroke="#aaa6ef" stroke-width="4"/>
  <path d="M181 208l19 25 20-25" fill="none" stroke="#f5cb72" stroke-width="4"/>
  <path d="M156 226l-30 46M244 226l27 45" stroke="#c98d77" stroke-width="12" stroke-linecap="round"/>
  <path d="M104 265h45l-6 55h-34Z" fill="#74e7dc" stroke="#f2fffd" stroke-width="4"/>
  <path d="M113 265q12-19 25 0" fill="none" stroke="#f2fffd" stroke-width="4"/><circle cx="127" cy="290" r="8" fill="#fff9c6"/>
  <path d="M155 322l-8 48M240 322l10 48" stroke="#17152c" stroke-width="13" stroke-linecap="round"/>
  <path d="M30 347h340" stroke="#f5cb72" stroke-width="2" stroke-dasharray="2 15" opacity=".6"/>
</svg>
