<svg xmlns="http://www.w3.org/2000/svg" viewBox="0 0 400 400" role="img" aria-labelledby="title desc">
  <title id="title">Moon-road traveler</title>
  <desc id="desc">A cloaked caravan traveler holding a prism lantern and curved blade beneath a crescent moon.</desc>
  <defs>
    <linearGradient id="sky" x1="0" y1="0" x2="1" y2="1"><stop stop-color="#10183a"/><stop offset="1" stop-color="#24204a"/></linearGradient>
    <linearGradient id="cloak" x1="0" y1="0" x2="0" y2="1"><stop stop-color="#5d5694"/><stop offset="1" stop-color="#252343"/></linearGradient>
    <linearGradient id="lamp" x1="0" y1="0" x2="0" y2="1"><stop stop-color="#fff2a8"/><stop offset="1" stop-color="#6fe7dd"/></linearGradient>
  </defs>
  <rect width="400" height="400" rx="30" fill="url(#sky)"/>
  <circle cx="306" cy="76" r="42" fill="#f7d782"/><circle cx="324" cy="64" r="40" fill="#151a3b"/>
  <path d="M20 322Q94 267 162 310T290 298T420 306V400H0Z" fill="#0b1026"/>
  <path d="M52 312v-47h62v34M66 265l18-24 18 24M302 304v-62h40v54" fill="none" stroke="#514d78" stroke-width="8" stroke-linejoin="round"/>
  <path d="M177 145q25-38 53 0l15 37-75 1Z" fill="#282743" stroke="#aaa6ef" stroke-width="4"/>
  <circle cx="204" cy="151" r="23" fill="#e6a383"/><path d="M182 151q22-41 47-2v14q-19-13-47 0Z" fill="#20213b"/>
  <path d="M172 178q32-18 67 3l32 137-126 1Z" fill="url(#cloak)" stroke="#aaa6ef" stroke-width="4" stroke-linejoin="round"/>
  <path d="M188 189l17 24 18-24" fill="none" stroke="#f7d782" stroke-width="5"/>
  <path d="M164 207l-38 56 18 12 33-37M244 207l37 56" fill="none" stroke="#e6a383" stroke-width="14" stroke-linecap="round"/>
  <path d="M124 265l-13 59M105 323h25" fill="none" stroke="#b9b5f5" stroke-width="7" stroke-linecap="round"/>
  <path d="M280 257q32 18 17 66M286 249l20 11" fill="none" stroke="#f5c66d" stroke-width="7" stroke-linecap="round"/>
  <path d="M139 254h34l-5 44h-25Z" fill="url(#lamp)" stroke="#effffb" stroke-width="4"/>
  <path d="M147 254q8-16 18 0" fill="none" stroke="#effffb" stroke-width="4"/>
  <circle cx="156" cy="275" r="6" fill="#fff9d1"/>
  <path d="M153 319l-12 50M234 319l12 50" stroke="#1b1a32" stroke-width="15" stroke-linecap="round"/>
  <path d="M122 371h40M226 371h40" stroke="#0b1026" stroke-width="13" stroke-linecap="round"/>
  <path d="M28 345h344" stroke="#6fe7dd" stroke-width="3" stroke-dasharray="3 14" opacity=".65"/>
</svg>
