<svg xmlns="http://www.w3.org/2000/svg" viewBox="0 0 400 240" aria-hidden="true" focusable="false">
  <defs>
    <linearGradient id="reward-bg" x2="1" y2="1">
      <stop stop-color="#18203b"/>
      <stop offset=".58" stop-color="#44364a"/>
      <stop offset="1" stop-color="#6f4e35"/>
    </linearGradient>
    <radialGradient id="reward-glow">
      <stop stop-color="#fff7bf" stop-opacity=".92"/>
      <stop offset=".4" stop-color="#f5c66d" stop-opacity=".46"/>
      <stop offset="1" stop-color="#f5c66d" stop-opacity="0"/>
    </radialGradient>
    <linearGradient id="reward-chest" x2="0" y2="1">
      <stop stop-color="#c6814f"/>
      <stop offset="1" stop-color="#70435a"/>
    </linearGradient>
  </defs>
  <rect width="400" height="240" rx="24" fill="url(#reward-bg)"/>
  <ellipse cx="200" cy="113" rx="137" ry="109" fill="url(#reward-glow)"/>
  <path d="M105 126q18-51 95-51t95 51Z" fill="#8f5a4b" stroke="#f7cf72" stroke-width="6"/>
  <path d="M96 126h208l-17 82H113Z" fill="url(#reward-chest)" stroke="#f7cf72" stroke-width="6" stroke-linejoin="round"/>
  <path d="M105 129h190M145 128l-7 78M255 128l7 78" fill="none" stroke="#6f4350" stroke-width="6"/>
  <path d="M176 113h48v59h-48Z" fill="#f5c66d" stroke="#fff1a7" stroke-width="4"/>
  <circle cx="200" cy="138" r="8" fill="#57364b"/>
  <path d="M200 146v13" stroke="#57364b" stroke-width="6" stroke-linecap="round"/>
  <path d="m200 55 8-21 8 21 21 8-21 8-8 21-8-21-21-8Z" fill="#fff6bd" stroke="#f5c66d" stroke-width="3" stroke-linejoin="round"/>
  <path d="m105 69 5-13 5 13 13 5-13 5-5 13-5-13-13-5ZM289 81l4-11 4 11 11 4-11 4-4 11-4-11-11-4Z" fill="#8ef0e3"/>
  <circle cx="144" cy="53" r="6" fill="#f5c66d"/>
  <circle cx="267" cy="48" r="5" fill="#fff6bd"/>
  <path d="M26 219h348" stroke="#fff1a7" stroke-width="3" stroke-dasharray="3 14" opacity=".7"/>
</svg>
