<svg xmlns="http://www.w3.org/2000/svg" viewBox="0 0 400 240" aria-hidden="true" focusable="false">
  <defs>
    <linearGradient id="danger-bg" x2="1" y2="1">
      <stop stop-color="#17142c"/>
      <stop offset="1" stop-color="#3f2138"/>
    </linearGradient>
    <radialGradient id="danger-glow">
      <stop stop-color="#ffb16e" stop-opacity=".62"/>
      <stop offset=".42" stop-color="#a74863" stop-opacity=".26"/>
      <stop offset="1" stop-color="#a74863" stop-opacity="0"/>
    </radialGradient>
    <linearGradient id="danger-flame" x2=".25" y2="1">
      <stop stop-color="#ffb16e"/>
      <stop offset=".48" stop-color="#d65d62"/>
      <stop offset="1" stop-color="#612342"/>
    </linearGradient>
  </defs>
  <rect width="400" height="240" rx="24" fill="url(#danger-bg)"/>
  <circle cx="200" cy="111" r="112" fill="url(#danger-glow)"/>
  <path d="M200 24 316 200H84Z" fill="#211a33" stroke="#ef986c" stroke-width="8" stroke-linejoin="round"/>
  <path d="M200 62c10 30 39 43 35 77 14-11 21-26 21-42 25 27 31 59 14 83-14 20-37 28-70 28-32 0-56-8-70-28-17-25-10-56 15-83 0 17 7 31 21 42-5-34 24-47 34-77Z" fill="url(#danger-flame)" stroke="#ffc08a" stroke-width="5" stroke-linejoin="round"/>
  <path d="M200 115c7 14 21 24 19 43 7-6 11-13 12-21 10 16 10 32 1 43-7 9-18 14-32 14s-25-5-32-14c-9-12-9-27 2-43 0 8 4 15 11 21-2-19 12-29 19-43Z" fill="#2a1934" stroke="#f49a6e" stroke-width="4" stroke-linejoin="round"/>
  <path d="M94 63 62 38M306 63l32-25M67 121H30M333 121h37" stroke="#9b3f57" stroke-width="7" stroke-linecap="round"/>
  <circle cx="112" cy="31" r="5" fill="#ffb16e"/>
  <circle cx="288" cy="31" r="5" fill="#d65d62"/>
  <path d="M26 219h348" stroke="#d65d62" stroke-width="3" stroke-dasharray="3 14" opacity=".7"/>
</svg>
