<svg xmlns="http://www.w3.org/2000/svg" viewBox="0 0 400 240" aria-hidden="true" focusable="false">
  <defs>
    <linearGradient id="recovery-bg" x2="1" y2="1">
      <stop stop-color="#0b2430"/>
      <stop offset="1" stop-color="#263c4a"/>
    </linearGradient>
    <radialGradient id="recovery-glow">
      <stop stop-color="#eaffbd" stop-opacity=".9"/>
      <stop offset=".36" stop-color="#72ead6" stop-opacity=".48"/>
      <stop offset="1" stop-color="#72ead6" stop-opacity="0"/>
    </radialGradient>
    <linearGradient id="recovery-flame" x2=".35" y2="1">
      <stop stop-color="#eaffbd"/>
      <stop offset=".48" stop-color="#6fe7dd"/>
      <stop offset="1" stop-color="#45a9bd"/>
    </linearGradient>
  </defs>
  <rect width="400" height="240" rx="24" fill="url(#recovery-bg)"/>
  <circle cx="200" cy="112" r="112" fill="url(#recovery-glow)" opacity=".7"/>
  <path d="M200 192c-46 0-68-30-59-65 7-26 31-39 40-71 21 16 29 36 25 59 14-12 22-27 24-43 29 28 40 60 22 90-10 18-27 30-52 30Z" fill="url(#recovery-flame)" stroke="#e5ffda" stroke-width="5" stroke-linejoin="round"/>
  <path d="M201 177c-22 0-34-16-28-35 4-13 15-22 21-38 13 11 18 23 14 37 8-6 13-13 16-21 10 18 8 34-2 45-6 8-13 12-21 12Z" fill="#f4ffd1" opacity=".9"/>
  <path d="M92 156c26 2 50 13 73 33M308 156c-26 2-50 13-73 33" fill="none" stroke="#87dac8" stroke-width="12" stroke-linecap="round"/>
  <path d="M91 155c15-18 31-25 49-23M309 155c-15-18-31-25-49-23" fill="none" stroke="#d7ffcb" stroke-width="6" stroke-linecap="round"/>
  <path d="M86 78c20 0 34-13 34-33 0 20 13 33 33 33-20 0-33 13-33 33 0-20-14-33-34-33ZM287 55c13 0 21-8 21-21 0 13 9 21 22 21-13 0-22 9-22 22 0-13-8-22-21-22Z" fill="#b8f8d6" opacity=".9"/>
  <circle cx="283" cy="105" r="6" fill="#efffc8"/>
  <circle cx="122" cy="119" r="5" fill="#70e7dc"/>
  <path d="M28 218h344" stroke="#70e7dc" stroke-width="3" stroke-dasharray="3 14" opacity=".65"/>
</svg>
