<svg xmlns="http://www.w3.org/2000/svg" viewBox="0 0 400 400" role="img" aria-labelledby="title desc">
  <title id="title">Glasswind ridge</title>
  <desc id="desc">Bright crystal dust arcs across a narrow midnight ridge lined with sharp prism outcrops.</desc>
  <defs><linearGradient id="bg" x2="1" y2="1"><stop stop-color="#121a40"/><stop offset="1" stop-color="#34254f"/></linearGradient><linearGradient id="ridge" x2="0" y2="1"><stop stop-color="#57517e"/><stop offset="1" stop-color="#18182f"/></linearGradient></defs>
  <rect width="400" height="400" rx="30" fill="url(#bg)"/>
  <circle cx="76" cy="73" r="39" fill="#f4d07a"/><circle cx="91" cy="58" r="37" fill="#161b3f"/>
  <path d="M-20 349 66 211l52 63 71-134 65 141 55-96 111 164Z" fill="url(#ridge)" stroke="#7771aa" stroke-width="5" stroke-linejoin="round"/>
  <path d="M84 256l30-93 20 106M250 264l25-116 30 92M165 237l18-80 21 92" fill="#4b4c78" stroke="#8e88c5" stroke-width="4"/>
  <path d="M-30 118q92-59 190-5t251-8M-20 167q117-54 210-2t229-17M-23 218q112-49 221 0t228-12" fill="none" stroke="#7ceadf" stroke-width="5" stroke-linecap="round" opacity=".72"/>
  <path d="M12 95l14-11M46 131l19-16M104 94l12-10M142 153l19-13M204 111l17-15M239 170l17-12M292 108l18-17M342 158l22-14" stroke="#fff2bd" stroke-width="5" stroke-linecap="round"/>
  <path d="M170 350q-10-51 20-102t19-84q43 54 27 100t4 86Z" fill="#272744" opacity=".8"/>
  <circle cx="203" cy="254" r="8" fill="#fff5bd"/><path d="M203 262v36M203 277l-18 20M203 277l20 19" stroke="#d6d3ff" stroke-width="6" stroke-linecap="round"/>
  <path d="M0 350h400" stroke="#f4cf78" stroke-width="3" stroke-dasharray="2 13"/>
</svg>
