<svg xmlns="http://www.w3.org/2000/svg" viewBox="0 0 400 400" role="img" aria-labelledby="title desc">
  <title id="title">Prism ruin observatory</title>
  <desc id="desc">Broken geometric arches surround a tilted sky lens filled with trapped blue stars.</desc>
  <defs><linearGradient id="bg" x2="1" y2="1"><stop stop-color="#11183b"/><stop offset="1" stop-color="#332550"/></linearGradient><linearGradient id="lens" x2="1" y2="1"><stop stop-color="#7ce9df"/><stop offset=".55" stop-color="#8076d4"/><stop offset="1" stop-color="#ff8d78"/></linearGradient></defs>
  <rect width="400" height="400" rx="30" fill="url(#bg)"/>
  <circle cx="320" cy="65" r="37" fill="#f4d079"/><circle cx="335" cy="53" r="35" fill="#171b3f"/>
  <path d="M45 339V128h71v211M61 128l20-47 20 47M284 339V168h75v171M299 168l22-56 22 56" fill="none" stroke="#595680" stroke-width="12" stroke-linejoin="round"/>
  <path d="M0 342h400v58H0Z" fill="#10142c"/>
  <circle cx="199" cy="190" r="94" fill="#202044" stroke="#aaa6ef" stroke-width="7"/>
  <circle cx="199" cy="190" r="72" fill="url(#lens)" opacity=".85"/>
  <path d="M139 208l121-48M156 137l87 104M132 179l136 23" stroke="#f4f3ff" stroke-width="4" opacity=".6"/>
  <path d="M195 94v-29M107 191H78M291 191h30M199 285v33" stroke="#817bb8" stroke-width="9"/>
  <circle cx="178" cy="165" r="6" fill="#fff5b7"/><circle cx="230" cy="181" r="5" fill="#fff"/><circle cx="204" cy="220" r="7" fill="#ffb08f"/>
  <path d="M163 341q36-42 72 0" fill="none" stroke="#6fe7dd" stroke-width="6"/><path d="M151 342h96v43h-96Z" fill="#1b1b35" stroke="#7771aa" stroke-width="5"/>
  <path d="M19 364h362" stroke="#f5c66d" stroke-width="3" stroke-dasharray="3 15" opacity=".55"/>
</svg>
