<svg xmlns="http://www.w3.org/2000/svg" viewBox="0 0 400 400" role="img" aria-labelledby="title desc">
  <title id="title">Dawn beyond the prism gate</title><desc id="desc">A caravan crosses an open geometric arch into a radiant many-colored dawn.</desc>
  <defs><linearGradient id="sky" x2="1" y2="1"><stop stop-color="#1b1b48"/><stop offset=".52" stop-color="#765d92"/><stop offset="1" stop-color="#ff9a78"/></linearGradient><radialGradient id="dawn"><stop stop-color="#fff9c9"/><stop offset=".4" stop-color="#f5c66d" stop-opacity=".85"/><stop offset="1" stop-color="#f5c66d" stop-opacity="0"/></radialGradient></defs>
  <rect width="400" height="400" rx="30" fill="url(#sky)"/><circle cx="200" cy="193" r="174" fill="url(#dawn)" opacity=".55"/>
  <path d="M40 364V132h320v232M65 132 200 35l135 97" fill="none" stroke="#514b74" stroke-width="20" stroke-linejoin="round"/><path d="M96 364V165h208v199M109 165l91-66 91 66" fill="none" stroke="#bcb7ff" stroke-width="9"/>
  <path d="M0 322q82-44 170-12t230-5v95H0Z" fill="#17172e" opacity=".75"/><path d="M161 400q-4-70 39-111t33-86q61 87 29 197Z" fill="#756f9d" opacity=".75"/>
  <path d="M165 271h69l20 39h-109Z" fill="#9a536e" stroke="#f1bed0" stroke-width="5"/><circle cx="164" cy="316" r="14" fill="#22203a" stroke="#d5d2ff" stroke-width="5"/><circle cx="235" cy="316" r="14" fill="#22203a" stroke="#d5d2ff" stroke-width="5"/>
  <path d="M163 270l19-29h35l19 29" fill="none" stroke="#f5c66d" stroke-width="7"/><circle cx="153" cy="265" r="7" fill="#fff6b9"/><circle cx="246" cy="265" r="7" fill="#fff6b9"/>
  <path d="M56 96l20 24M99 63l14 31M298 65l-15 31M342 96l-19 24" stroke="#6fe7dd" stroke-width="6" stroke-linecap="round"/><path d="M24 378h352" stroke="#fff6b9" stroke-width="4" stroke-dasharray="3 14"/>
</svg>
