<svg xmlns="http://www.w3.org/2000/svg" viewBox="0 0 400 400" role="img" aria-labelledby="title desc">
  <title id="title">The road within</title><desc id="desc">A traveler silhouette stands where a strong root and a bright spell branch from one prism path.</desc>
  <defs><linearGradient id="bg" x2="1" y2="1"><stop stop-color="#11183b"/><stop offset="1" stop-color="#33204b"/></linearGradient><radialGradient id="halo"><stop stop-color="#fff4b5"/><stop offset=".45" stop-color="#6fe7dd" stop-opacity=".5"/><stop offset="1" stop-color="#6fe7dd" stop-opacity="0"/></radialGradient></defs>
  <rect width="400" height="400" rx="30" fill="url(#bg)"/><circle cx="200" cy="192" r="175" fill="url(#halo)" opacity=".4"/>
  <path d="M200 365V222M200 287Q131 246 88 177M200 287q70-41 113-110" fill="none" stroke="#f5c66d" stroke-width="11" stroke-linecap="round"/>
  <path d="M90 177q-23-78 49-123-10 72 50 115-53 25-99 8Z" fill="#ff8d78" stroke="#ffd0b6" stroke-width="6"/><path d="M311 177q25-79-48-123 9 71-51 115 54 25 99 8Z" fill="#6fe7dd" stroke="#effffb" stroke-width="6"/>
  <circle cx="200" cy="181" r="30" fill="#d89679"/><path d="M157 218q43-25 86 0l24 112H133Z" fill="#454268" stroke="#bcb7ff" stroke-width="6"/><path d="M178 218l22 26 22-26" fill="none" stroke="#f5c66d" stroke-width="5"/>
  <path d="M162 329l-12 49M238 329l12 49" stroke="#1a1930" stroke-width="15" stroke-linecap="round"/><path d="M34 378h332" stroke="#6fe7dd" stroke-width="3" stroke-dasharray="3 15"/>
</svg>
